<?xml version="1.0" standalone="no"?>
<!DOCTYPE svg PUBLIC "-//W3C//DTD SVG 1.1//EN" "http://www.w3.org/Graphics/SVG/1.1/DTD/svg11.dtd">
<svg xmlns="http://www.w3.org/2000/svg" id="Capa_1" data-name="Capa 1" viewBox="0 0 1080 1080" width="1080" height="1080">
  <path d="M294.39,584.14c7.76-13.9,11.64-29.82,11.64-47.72s-3.93-34.34-11.76-48.24c-7.86-13.91-18.65-24.82-32.37-32.76-13.74-7.93-29.64-11.9-47.73-11.9-13.48,0-25.8,2.26-36.97,6.77-11.18,4.52-20.82,10.92-28.93,19.2-8.11,8.28-14.42,18.08-18.93,29.42-4.52,11.36-6.78,23.76-6.78,37.24,0,18.08,3.92,34.08,11.78,47.98,7.83,13.9,18.72,24.82,32.62,32.76,13.9,7.93,29.9,11.9,47.98,11.9,12.43,0,23.87-1.94,34.33-5.84l-26.26-26.65c-2.61.33-5.29.51-8.07.51-11.08,0-20.89-2.59-29.42-7.81-8.54-5.2-15.19-12.32-19.97-21.36-4.77-9.03-7.17-19.53-7.17-31.47s2.4-22.22,7.17-31.35c4.78-9.13,11.39-16.3,19.83-21.5,8.45-5.2,18.04-7.81,28.79-7.81s20.82,2.61,29.17,7.81c8.37,5.2,14.93,12.37,19.71,21.5,4.77,9.13,7.17,19.57,7.17,31.35s-2.35,22.44-7.04,31.47c-.64,1.24-1.31,2.43-2.01,3.58l-22.67-23.03-22.53,21.24,22.23,22.57,24.3,24.69,19.49,19.78,22.02-21.75-17.93-18.21c3.08-3.82,5.86-7.94,8.33-12.37Z"/>
  <path d="M446.26,543.88v36.54c-.44.43-.95.79-1.52,1.05-1.39.66-2.75,1.43-4.07,2.32-12.83,8.6-17.34,25.68-10.41,39.49.42.84.88,1.65,1.37,2.44h-17.1l-1.5-17.2c-3.36,5.18-7.38,9.43-12.06,12.73-7.16,5.03-15.6,7.55-25.33,7.55-10.24,0-18.94-2.04-26.1-6.13-7.17-4.1-12.59-10.45-16.25-19.07-3.67-8.61-5.5-19.75-5.5-33.4v-72.42h33.78v65.51c0,8.53.97,15.23,2.94,20.09,1.95,4.86,4.77,8.36,8.44,10.49,3.67,2.14,7.8,3.2,12.41,3.2,8.87.17,15.6-2.51,20.21-8.06,4.6-5.54,6.9-13.61,6.9-24.18v-67.04h18.52c-6.38,10.06-6.61,23.33.47,33.84,3.35,4.97,7.88,8.65,12.97,10.93.71.32,1.32.78,1.82,1.34Z"/>
  <path d="M506.54,569.49l-25.17,14.82c-1.81,1.06-4.05.95-5.78-.25-1.58-1.09-3.25-2.04-4.98-2.81-.09-.04-.17-.08-.26-.13-1.23-6-1.84-12.45-1.84-19.37s.61-13.45,1.82-19.44c1.38-.66,2.74-1.43,4.05-2.31.3-.2.61-.41.91-.63,1.66-1.21,3.9-1.28,5.68-.27l25.42,14.38c1.82,1.04,2.85,3.04,2.67,5.13-.16,1.89-.15,3.8.06,5.72.21,2.08-.79,4.1-2.59,5.16Z"/>
  <path d="M598.52,497.78v127.95h-31.99l-1.33-17.65c-3.23,5.02-7.08,9.21-11.6,12.53-7.42,5.46-16.5,8.19-27.26,8.19-11.77,0-21.97-2.72-30.57-8.19-2.65-1.68-5.12-3.58-7.41-5.68.51-2.81.63-5.69.34-8.57-.21-2.09.78-4.13,2.59-5.19l25.17-14.82c1.81-1.06,4.06-.94,5.78.26,9.61,6.66,22.61,7.57,33.34,1.26,15.36-9.05,20.03-29.28,9.77-44.23-8.74-12.72-25.84-17.02-39.56-9.97-1.41.72-2.74,1.53-3.98,2.43-1.71,1.23-3.96,1.4-5.78.37l-25.43-14.39c-1.82-1.04-2.85-3.04-2.67-5.14.21-2.54.11-5.11-.31-7.65,2.49-2.4,5.21-4.52,8.14-6.38,8.61-5.45,18.8-8.19,30.57-8.19,10.75,0,19.84,2.73,27.26,8.19,4.31,3.17,8,7.12,11.13,11.82v-16.93h33.78Z"/>
  <path d="M680.28,503.92c-7.47,3.93-13.74,9.67-18.81,17.2v-23.34h-33.78v127.95h33.78v-67.3c0-6.65,2.13-12.11,6.4-16.38,4.26-4.26,9.85-7.33,16.76-9.21,6.91-1.88,14.29-2.82,22.13-2.82v-32.75c-9.21,0-18.04,2.22-26.48,6.65Z"/>
  <polygon points="806.56 625.73 846.23 625.73 794.04 551.77 842.39 497.78 802.21 497.78 758.45 545.98 758.45 446.6 724.67 446.6 724.67 625.73 758.45 625.73 758.45 591.51 772.41 575.93 806.56 625.73"/>
  <path d="M953.99,573.65c-2.3-5.54-5.98-10.57-11-15.1-5.04-4.52-11.73-7.8-20.1-9.85l-16.63-4.1c-4.44-1.03-7.85-2.26-10.24-3.71-2.38-1.45-3.58-3.28-3.58-5.5,0-3.41,1.23-6.1,3.7-8.06,2.48-1.96,6.01-2.94,10.63-2.94s9.21,1.06,13.82,3.2c4.61,2.14,7.51,4.9,8.7,8.31l27.9-12.8c-1.88-5.63-5.29-10.57-10.24-14.84-4.95-4.26-10.87-7.58-17.79-9.97-6.9-2.38-14.37-3.58-22.39-3.58-15.53,0-27.51,3.58-35.96,10.74-8.44,7.17-12.67,17.32-12.67,30.46,0,9.21,3.54,17.36,10.63,24.44,7.08,7.08,16.76,12.24,29.04,15.48l11.77,3.07c4.26,1.03,7.63,2.26,10.1,3.71,2.48,1.45,3.71,3.71,3.71,6.78s-1.53,5.42-4.6,7.03c-3.07,1.63-7.43,2.44-13.05,2.44s-10.92-1.49-15.36-4.48c-4.44-2.98-7.93-6.53-10.49-10.62l-28.92,13.3c3.07,6.83,7.33,12.59,12.79,17.27,5.46,4.69,11.77,8.28,18.94,10.75,7.17,2.47,14.84,3.7,23.03,3.7,9.89,0,18.72-1.62,26.49-4.86,7.77-3.24,13.91-7.8,18.43-13.69,4.52-5.89,6.78-12.67,6.78-20.34,0-5.29-1.16-10.71-3.46-16.25Z"/>
</svg>