<?xml version="1.0" standalone="no"?>
<!DOCTYPE svg PUBLIC "-//W3C//DTD SVG 1.1//EN" "http://www.w3.org/Graphics/SVG/1.1/DTD/svg11.dtd">
<svg xmlns="http://www.w3.org/2000/svg" id="Capa_1" data-name="Capa 1" viewBox="0 0 1080 1080" width="1080" height="1080">
  <defs>
    <style>
      .cls-1 {
        fill: #fff4da;
      }

      .cls-2 {
        fill: #0e0a07;
      }
    </style>
  </defs>
  <rect class="cls-2" width="1080" height="1080"/>
  <g>
    <path class="cls-1" d="M690.9,521.21c-13.68-7.9-28.53-11.9-43.29-12.46l-29.45-34.17c41.55-59.14-5.23-147.94-78.42-145.68-67-1.59-114.48,73.24-85.28,133.07l-12.61,47.18c-72.01-6.41-125.52,78.51-86.98,140.75,32.14,58.84,120.68,62.52,157.9,7.34l47.18-12.67c83.97,139.5,265.28-30.96,130.96-123.37ZM693.95,631.43c-19.99,36.7-75.47,38.3-97.85,3.44l32.34-8.67-9.75-36.32-89.31,23.97c4.37-30.62-10-65.99-35.31-84.94l-10.84,40.56c44.51,65.77-55.7,130.17-97.03,62.33-21.79-35.65,4.56-84.51,45.93-86.45l-8.65,32.34,36.32,9.72,23.9-89.33c24.33,19.06,62.14,24.31,91.2,11.88l-29.69-29.67c-79.22,5.68-84.85-113.3-5.46-115.17,41.78-1.08,70.91,46.19,51.89,83l-23.67-23.67-26.57,26.59,62.69,66.52c-27.41,12.09-49.53,41.55-53.18,71.88l40.53-10.89c34.7-71.45,140.56-16.82,102.5,52.86Z"/>
    <g>
      <path class="cls-1" d="M755.09,775.91c-2.74-.22-5.13.57-7.16,2.34-2.03,1.78-3.13,4.04-3.28,6.78-.16,2.75.65,5.13,2.43,7.17,1.72,1.97,3.96,3.06,6.69,3.28,2.74.21,5.13-.57,7.16-2.34,2.03-1.78,3.13-4.04,3.29-6.78.15-2.74-.63-5.1-2.35-7.07-1.78-2.03-4.04-3.16-6.77-3.37Z"/>
      <path class="cls-1" d="M719.85,819.8c-3.68-7.86-8.64-14.02-14.89-18.46-6.23-4.45-13.18-6.98-20.82-7.59-7.66-.61-15.41.91-23.27,4.59-5.75,2.68-10.57,6.11-14.43,10.27l16.57,6.14c1.32-.93,2.8-1.77,4.36-2.52,4.82-2.25,9.61-3.11,14.39-2.59,4.75.52,9.09,2.27,13,5.23,3.93,2.95,7.09,7.02,9.52,12.2,2.39,5.11,3.48,10.14,3.25,15.07-.2,4.93-1.61,9.39-4.23,13.36-2.61,4-6.25,7.07-10.93,9.25-4.8,2.27-9.57,3.11-14.25,2.55-4.68-.57-9-2.34-12.93-5.32-3.93-3-7.09-7.05-9.48-12.16-2.43-5.2-3.55-10.23-3.34-15.11.02-.66.07-1.32.14-1.96l14.55,5.39,3.36-8.52,1.98-4.96.11-.32-14.23-5.27-15.61-5.8-12.48-4.64-1.95,5.32-3.18,8.61,11.5,4.27c-.57,2.27-.93,4.64-1.11,7.05-.55,7.61,1.02,15.32,4.66,23.09,3.7,7.93,8.68,14.11,14.93,18.57,6.23,4.43,13.14,6.98,20.71,7.64,7.59.66,15.3-.86,23.16-4.52,5.84-2.75,10.75-6.23,14.68-10.48,3.93-4.23,6.82-8.98,8.66-14.21,1.82-5.25,2.57-10.8,2.23-16.64-.34-5.86-1.89-11.71-4.61-17.55Z"/>
      <path class="cls-1" d="M620.79,844.06c-1.08-6.46-2.84-11.58-5.26-15.36-2.42-3.78-5.49-6.36-9.2-7.72-3.72-1.37-7.99-1.64-12.83-.83-4.6.77-8.39,2.63-11.38,5.58-1.96,1.93-3.49,4.31-4.68,7.04l-2.09-8.09-15.01,2.53,10.17,60.52,15.98-2.68-5.34-31.77c-.82-4.97-.38-8.95,1.35-11.93,1.74-2.99,4.71-4.79,8.92-5.42,2.18-.37,4.22-.19,6.13.53,1.9.71,3.52,2.14,4.83,4.29s2.31,5.23,2.99,9.26l5.21,30.99,15.98-2.69-5.21-30.99-.55-3.27Z"/>
      <path class="cls-1" d="M549.93,841.48c-1.96-4.97-4.93-8.89-8.89-11.77-3.96-2.88-8.76-4.5-14.39-4.86-5.12-.34-9.57.69-13.27,3.08-2.28,1.46-4.24,3.4-5.94,5.72l-.11-8.58-15.3-.99-3.96,61.25,16.18,1.03.52-8.18c1.36,2.37,2.99,4.41,4.97,6.07,3.38,2.86,7.64,4.43,12.78,4.78,5.64.37,10.61-.62,14.89-2.99,4.3-2.35,7.75-5.83,10.33-10.46,2.6-4.63,4.11-10.24,4.54-16.87.41-6.52-.37-12.29-2.35-17.23ZM535.49,857.63c-.22,3.36-1.05,6.28-2.54,8.82-1.46,2.52-3.36,4.43-5.66,5.72-2.3,1.27-4.91,1.83-7.85,1.64-2.86-.17-5.31-1.05-7.4-2.62-2.07-1.57-3.64-3.7-4.69-6.39-.77-2.02-1.2-4.2-1.29-6.56l.32-4.99c.39-2.35,1.1-4.45,2.13-6.33,1.4-2.54,3.23-4.48,5.46-5.81,2.28-1.31,4.8-1.89,7.57-1.72,2.93.19,5.46,1.1,7.62,2.71,2.17,1.61,3.81,3.77,4.95,6.45,1.14,2.71,1.59,5.72,1.38,9.08Z"/>
      <path class="cls-1" d="M458.4,848.28c-.82,3.08-2.47,5.35-4.98,6.81-2.49,1.46-5.46,2.2-8.9,2.22-3.43.02-6.97-.45-10.61-1.41l-4.01,15.19c4.27,1.13,8.64,1.18,13.1.16,3.97-.91,7.57-2.87,10.85-5.76l-2.88,10.91,15.67,4.14,15.67-59.33-15.66-4.14-8.25,31.21Z"/>
      <polygon class="cls-1" points="426.26 803.28 419.24 818.12 409.99 822.01 405.4 793.41 388.21 785.27 395.66 828.04 363.61 841.53 381.03 849.77 409.9 837.85 389.5 880.94 404.14 887.87 440.9 810.22 426.26 803.28"/>
      <path class="cls-1" d="M355.92,790.09l-3.63-4.57c-1.34-1.62-2.28-3.07-2.81-4.33-.53-1.27-.36-2.49.53-3.67.88-1.18,2.14-1.64,3.79-1.37,1.64.26,3.55,1.2,5.71,2.82,2.22,1.67,3.76,3.71,4.6,6.14.84,2.42,1.17,4.78.97,7.09l14.92,3.22c.79-3.5.81-6.94.06-10.31-.74-3.37-2.13-6.56-4.17-9.58-2.04-3.01-4.63-5.69-7.76-8.05-3.8-2.85-7.65-4.76-11.56-5.76-3.91-.99-7.58-1.01-11.01-.05-3.43.96-6.25,2.91-8.46,5.85-1.52,2.03-2.64,4.44-3.35,7.23-.71,2.79-.75,5.78-.12,8.96.63,3.18,2.25,6.37,4.87,9.56l5.2,6.36c1.41,1.67,2.36,3.13,2.86,4.37.5,1.24.43,2.29-.21,3.14-.98,1.31-2.23,1.98-3.74,2.03-1.51.04-3.16-.6-4.92-1.93-1.77-1.33-3.23-3.06-4.38-5.2-1.15-2.14-1.47-4.04-.95-5.69l-14.38-3.12c-.9,2.7-1.01,5.58-.34,8.64.67,3.06,1.98,6.04,3.95,8.95,1.97,2.91,4.49,5.51,7.56,7.82,5.96,4.47,11.59,6.55,16.89,6.23,5.3-.32,9.84-3,13.62-8.04,2.65-3.53,3.64-7.68,2.96-12.43-.67-4.75-2.91-9.52-6.69-14.3Z"/>
      <path class="cls-1" d="M294.15,743.54c-2.74-.17-5.14.63-7.17,2.4-1.98,1.72-3.08,3.95-3.31,6.68-.22,2.74.55,5.13,2.32,7.17,1.77,2.04,4.03,3.15,6.77,3.31,2.74.17,5.11-.61,7.08-2.32,2.04-1.77,3.17-4.02,3.4-6.76.23-2.74-.55-5.13-2.32-7.17-1.77-2.04-4.02-3.14-6.77-3.3Z"/>
      <path class="cls-1" d="M281.14,659.63c-2.66-5.75-6.05-10.57-10.21-14.48l-6.21,16.55c.93,1.34,1.77,2.8,2.5,4.39,2.23,4.84,3.09,9.61,2.55,14.39-.57,4.75-2.32,9.09-5.3,13-2.95,3.89-7.05,7.05-12.25,9.46-5.11,2.36-10.14,3.43-15.09,3.2-4.93-.25-9.39-1.68-13.34-4.32-3.98-2.61-7.05-6.27-9.21-10.95-2.23-4.82-3.05-9.57-2.48-14.27.59-4.68,2.36-8.98,5.39-12.91,3-3.91,7.07-7.05,12.21-9.43,5.18-2.39,10.23-3.5,15.11-3.27.66.02,1.32.09,1.95.16l-5.45,14.5,8.52,3.41,5.27,2.11,5.34-14.21,5.84-15.57,4.68-12.48-5.32-1.98-8.59-3.2-4.32,11.5c-2.27-.61-4.64-.98-7.05-1.16-7.61-.57-15.32.93-23.12,4.55-7.96,3.68-14.16,8.64-18.61,14.84-4.48,6.23-7.07,13.11-7.75,20.71-.68,7.57.8,15.3,4.45,23.16,2.7,5.86,6.18,10.77,10.39,14.73,4.23,3.96,8.95,6.86,14.18,8.71,5.25,1.86,10.77,2.64,16.64,2.32,5.84-.32,11.71-1.84,17.57-4.55,7.86-3.66,14.05-8.57,18.5-14.8,4.48-6.2,7.05-13.16,7.68-20.8.66-7.66-.84-15.41-4.5-23.3Z"/>
      <path class="cls-1" d="M238.47,581.12c2.98,1.75,4.78,4.73,5.38,8.94.36,2.18.17,4.22-.55,6.12-.72,1.9-2.16,3.51-4.31,4.81-2.14,1.31-5.24,2.29-9.28,2.95l-31.01,5.08,2.62,15.99,31.01-5.08,3.27-.54c6.46-1.06,11.59-2.79,15.38-5.19,3.8-2.4,6.38-5.46,7.76-9.17,1.38-3.71,1.68-7.99.88-12.83-.75-4.6-2.6-8.4-5.54-11.4-1.92-1.97-4.29-3.51-7.02-4.71l8.09-2.06-2.46-15.02-60.56,9.92,2.62,15.99,31.76-5.2c4.99-.81,8.99-.35,11.96,1.4Z"/>
      <path class="cls-1" d="M246.48,506.08l8.58-.04,1.05-15.32-61.23-4.2-1.1,16.16,8.15.56c-2.35,1.36-4.41,2.97-6.09,4.93-2.84,3.38-4.45,7.64-4.8,12.78-.39,5.64.58,10.59,2.9,14.89,2.35,4.3,5.81,7.77,10.41,10.39,4.63,2.6,10.24,4.13,16.85,4.58,6.54.45,12.29-.3,17.25-2.24,4.99-1.96,8.91-4.93,11.81-8.86,2.9-3.94,4.54-8.74,4.93-14.35.34-5.14-.65-9.6-3.03-13.32-1.44-2.28-3.38-4.24-5.7-5.96ZM237.94,527.79c-1.61,2.15-3.79,3.79-6.48,4.91-2.71,1.14-5.72,1.57-9.08,1.36-3.33-.24-6.28-1.1-8.8-2.58-2.52-1.48-4.43-3.38-5.7-5.68-1.27-2.3-1.81-4.93-1.61-7.85.19-2.86,1.08-5.34,2.67-7.38,1.57-2.07,3.7-3.64,6.39-4.67,2.02-.77,4.2-1.2,6.56-1.27l4.99.34c2.35.39,4.45,1.1,6.33,2.15,2.54,1.4,4.48,3.23,5.79,5.49,1.31,2.28,1.87,4.8,1.7,7.57-.22,2.93-1.12,5.49-2.75,7.62Z"/>
      <path class="cls-1" d="M199.77,465.08l59.27,15.92,4.2-15.65-31.18-8.37c-3.08-.83-5.34-2.49-6.79-5-1.44-2.5-2.17-5.48-2.18-8.91,0-3.43.47-6.97,1.45-10.6l-15.17-4.08c-1.15,4.27-1.22,8.63-.21,13.1.9,3.97,2.84,7.58,5.72,10.88l-10.91-2.93-4.2,15.65Z"/>
      <polygon class="cls-1" points="277.17 425.06 262.37 417.98 258.52 408.72 287.13 404.24 295.34 387.08 252.54 394.36 239.19 362.26 230.87 379.65 242.67 408.56 199.67 387.99 192.68 402.6 270.18 439.68 277.17 425.06"/>
      <path class="cls-1" d="M319.09,344.55c-.95-3.43-2.89-6.26-5.82-8.48-2.02-1.53-4.43-2.66-7.21-3.38-2.79-.72-5.78-.77-8.96-.16-3.19.62-6.38,2.23-9.58,4.83l-6.38,5.18c-1.67,1.4-3.13,2.35-4.38,2.84-1.25.5-2.29.42-3.14-.22-1.31-.99-1.98-2.24-2.02-3.75-.04-1.51.62-3.15,1.95-4.91,1.33-1.76,3.07-3.22,5.22-4.36,2.15-1.15,4.05-1.45,5.7-.92l3.17-14.37c-2.69-.91-5.58-1.04-8.64-.38-3.06.66-6.05,1.97-8.96,3.92-2.91,1.96-5.53,4.47-7.85,7.53-4.49,5.94-6.59,11.56-6.29,16.87.3,5.3,2.96,9.85,7.98,13.65,3.52,2.67,7.67,3.67,12.43,3.01,4.75-.66,9.53-2.87,14.32-6.63l4.59-3.62c1.62-1.33,3.07-2.27,4.34-2.79,1.27-.53,2.49-.35,3.67.54,1.18.89,1.63,2.15,1.36,3.8-.27,1.64-1.22,3.54-2.85,5.7-1.68,2.22-3.73,3.74-6.16,4.57-2.42.84-4.79,1.15-7.09.94l-3.28,14.91c3.5.8,6.93.83,10.31.1,3.37-.73,6.57-2.11,9.59-4.14,3.02-2.03,5.71-4.6,8.08-7.74,2.86-3.79,4.8-7.63,5.8-11.54,1.01-3.9,1.04-7.58.1-11.01Z"/>
      <path class="cls-1" d="M326.92,302.25c2.73.23,5.13-.53,7.18-2.29,2.05-1.76,3.16-4.01,3.34-6.76.18-2.74-.62-5.14-2.37-7.19-1.71-1.98-3.93-3.09-6.67-3.33-2.73-.23-5.13.53-7.17,2.29-2.05,1.76-3.16,4.01-3.34,6.76-.18,2.74.59,5.11,2.3,7.09,1.76,2.05,4.01,3.19,6.75,3.43Z"/>
      <path class="cls-1" d="M362.6,258.59c3.61,7.89,8.52,14.09,14.73,18.57,6.2,4.5,13.11,7.09,20.77,7.77,7.64.68,15.41-.77,23.3-4.39,5.77-2.64,10.61-6.05,14.52-10.16l-16.52-6.3c-1.34.95-2.8,1.77-4.39,2.5-4.84,2.2-9.64,3.05-14.39,2.48-4.77-.57-9.09-2.34-12.98-5.34-3.89-2.98-7.02-7.07-9.41-12.3-2.36-5.11-3.41-10.16-3.14-15.09.25-4.93,1.7-9.36,4.34-13.34,2.64-3.96,6.32-7,11-9.14,4.84-2.23,9.59-3.02,14.27-2.43,4.68.59,8.98,2.41,12.89,5.43,3.91,3.02,7.05,7.11,9.39,12.25,2.39,5.2,3.45,10.25,3.23,15.11-.02.66-.09,1.32-.18,1.96l-14.48-5.5-3.43,8.5-2.14,5.27,14.18,5.39,15.52,5.93,12.46,4.73,2.02-5.32,3.25-8.57-11.48-4.36c.59-2.27.98-4.61,1.18-7.05.59-7.61-.89-15.34-4.45-23.14-3.66-7.96-8.57-14.18-14.77-18.68-6.2-4.5-13.09-7.11-20.66-7.82-7.57-.73-15.3.73-23.18,4.34-5.89,2.68-10.8,6.14-14.77,10.34-3.98,4.21-6.91,8.93-8.77,14.14-1.89,5.25-2.68,10.77-2.39,16.61.3,5.86,1.8,11.73,4.48,17.59Z"/>
      <path class="cls-1" d="M500.38,253.79c1.98-1.92,3.53-4.28,4.73-7.01l2.03,8.11,15.03-2.4-9.67-60.6-16,2.55,5.07,31.77c.8,5,.31,8.99-1.45,11.96-1.76,2.97-4.75,4.76-8.97,5.35-2.18.35-4.22.16-6.12-.58-1.9-.73-3.5-2.18-4.79-4.33-1.3-2.15-2.26-5.25-2.91-9.29l-4.95-31.03-16,2.55,4.95,31.03.52,3.27c1.03,6.47,2.74,11.6,5.13,15.4,2.39,3.8,5.43,6.41,9.14,7.8,3.7,1.4,7.98,1.71,12.82.94,4.61-.74,8.42-2.57,11.43-5.49Z"/>
      <path class="cls-1" d="M578.74,193.81l-.58,8.15c-1.36-2.37-2.95-4.43-4.91-6.11-3.38-2.86-7.62-4.48-12.76-4.86-5.64-.41-10.61.54-14.91,2.86-4.32,2.3-7.79,5.77-10.41,10.37-2.65,4.6-4.2,10.22-4.67,16.82-.49,6.54.24,12.29,2.17,17.28,1.94,4.97,4.86,8.93,8.8,11.83,3.94,2.9,8.71,4.58,14.35,4.97,5.14.39,9.57-.6,13.32-2.97,2.28-1.44,4.26-3.36,5.98-5.68l.02,8.58,15.3,1.12,4.45-61.21-16.16-1.16ZM576.33,226.88c-.39,2.35-1.12,4.45-2.17,6.35-1.42,2.52-3.25,4.43-5.53,5.74-2.28,1.31-4.8,1.85-7.57,1.66-2.93-.22-5.46-1.14-7.62-2.78-2.13-1.64-3.74-3.79-4.86-6.5-1.12-2.71-1.55-5.74-1.31-9.08.24-3.36,1.12-6.28,2.6-8.8,1.51-2.52,3.4-4.41,5.7-5.68,2.32-1.25,4.95-1.79,7.87-1.57,2.86.22,5.31,1.1,7.38,2.69,2.04,1.59,3.59,3.72,4.63,6.43.77,2,1.18,4.2,1.25,6.56l-.37,4.97Z"/>
      <path class="cls-1" d="M624.29,232.27h0c.84-3.08,2.51-5.33,5.03-6.77,2.51-1.43,5.48-2.15,8.91-2.15,3.44,0,6.97.5,10.6,1.49l4.14-15.15c-4.26-1.17-8.63-1.26-13.09-.27-3.97.88-7.6,2.81-10.91,5.68l2.97-10.89-15.63-4.27-16.16,59.2,15.63,4.27,8.5-31.14Z"/>
      <polygon class="cls-1" points="655.99 277.5 663.13 262.72 672.41 258.91 676.77 287.54 693.89 295.82 686.79 252.99 718.94 239.76 701.59 231.38 672.64 243.06 693.38 200.14 678.79 193.09 641.41 270.45 655.99 277.5"/>
      <path class="cls-1" d="M748.28,306.77c.73-2.78.8-5.77.2-8.96-.6-3.19-2.21-6.39-4.8-9.6l-5.15-6.4c-1.39-1.68-2.34-3.15-2.82-4.39-.49-1.25-.41-2.29.24-3.14.99-1.3,2.25-1.97,3.76-1.99,1.51-.03,3.15.63,4.91,1.97,1.75,1.34,3.2,3.09,4.34,5.24,1.14,2.16,1.44,4.05.9,5.7l14.36,3.24c.92-2.7,1.06-5.58.41-8.64-.64-3.07-1.94-6.06-3.88-8.98-1.94-2.92-4.44-5.55-7.5-7.88-5.92-4.52-11.53-6.64-16.84-6.36-5.3.28-9.87,2.92-13.69,7.93-2.68,3.51-3.7,7.65-3.06,12.41.64,4.76,2.83,9.54,6.57,14.35l3.6,4.6c1.33,1.63,2.26,3.08,2.77,4.35.52,1.27.33,2.5-.56,3.67-.89,1.17-2.16,1.62-3.8,1.34s-3.54-1.23-5.69-2.87c-2.21-1.69-3.73-3.75-4.55-6.17-.83-2.43-1.13-4.8-.91-7.1l-14.9-3.34c-.81,3.5-.86,6.93-.15,10.31.72,3.38,2.08,6.58,4.1,9.6,2.02,3.03,4.58,5.74,7.7,8.12,3.77,2.88,7.61,4.83,11.52,5.85,3.9,1.03,7.57,1.07,11.01.14,3.44-.93,6.27-2.86,8.5-5.79,1.54-2.02,2.68-4.41,3.41-7.2Z"/>
      <path class="cls-1" d="M787.6,338.29c2.74.19,5.14-.59,7.19-2.35,1.99-1.7,3.11-3.92,3.36-6.66.25-2.74-.51-5.13-2.26-7.18-1.75-2.06-4-3.18-6.74-3.36-2.74-.19-5.11.57-7.1,2.27-2.06,1.75-3.2,4-3.45,6.73-.24,2.73.51,5.13,2.26,7.19,1.75,2.05,4,3.17,6.74,3.36Z"/>
      <path class="cls-1" d="M799.94,422.3c2.61,5.77,5.98,10.61,10.07,14.55l6.36-16.5c-.93-1.34-1.75-2.8-2.45-4.39-2.2-4.84-3.02-9.64-2.43-14.41.59-4.75,2.39-9.07,5.39-12.93,3-3.89,7.11-7,12.34-9.36,5.14-2.34,10.18-3.36,15.09-3.09,4.93.3,9.39,1.75,13.32,4.41,3.95,2.66,7,6.34,9.11,11.05,2.2,4.84,2.98,9.59,2.36,14.27-.61,4.68-2.43,8.98-5.48,12.86-3.05,3.91-7.14,7.02-12.27,9.34-5.23,2.36-10.27,3.41-15.14,3.16-.66-.05-1.32-.09-1.98-.18l5.57-14.46-8.48-3.48-4.73-1.96-.52-.2-5.45,14.18-5.98,15.5-4.8,12.43,5.32,2.05,8.55,3.27,4.41-11.46c2.27.61,4.61,1,7.05,1.2,7.61.64,15.34-.82,23.16-4.36,7.98-3.61,14.23-8.52,18.73-14.68,4.52-6.18,7.16-13.07,7.91-20.64.75-7.57-.66-15.32-4.25-23.21-2.66-5.89-6.09-10.82-10.27-14.82-4.2-3.98-8.91-6.93-14.11-8.82-5.23-1.91-10.75-2.73-16.61-2.45-5.84.27-11.73,1.75-17.61,4.41-7.89,3.59-14.09,8.48-18.61,14.64-4.52,6.2-7.14,13.11-7.84,20.75-.73,7.64.7,15.41,4.3,23.32Z"/>
      <path class="cls-1" d="M853.95,502.73c-5.01.78-9,.28-11.97-1.49-2.97-1.78-4.74-4.77-5.31-8.99-.34-2.18-.14-4.22.6-6.12.74-1.9,2.19-3.49,4.35-4.77,2.16-1.29,5.26-2.25,9.3-2.87l31.05-4.83-2.49-16.01-31.05,4.82-3.28.51c-6.47,1.01-11.61,2.69-15.42,5.07-3.81,2.37-6.43,5.41-7.84,9.11-1.41,3.69-1.74,7.97-.99,12.82.72,4.61,2.53,8.42,5.44,11.45,1.91,1.99,4.27,3.55,6.99,4.77l-8.11,1.99,2.34,15.04,60.63-9.42-2.49-16.01-31.78,4.94h0Z"/>
      <path class="cls-1" d="M883.99,574.52c2.88-3.33,4.52-7.59,4.93-12.74.43-5.62-.49-10.59-2.8-14.91-2.3-4.32-5.74-7.81-10.33-10.46-4.6-2.67-10.22-4.24-16.82-4.75-6.52-.49-12.26.22-17.28,2.13-4.99,1.91-8.93,4.82-11.85,8.74-2.95,3.94-4.63,8.69-5.06,14.33-.39,5.14.58,9.6,2.93,13.34,1.42,2.3,3.36,4.28,5.66,6l-8.58-.02-1.18,15.3,61.19,4.71,1.25-16.16-8.18-.62c2.39-1.33,4.45-2.93,6.13-4.88ZM873.66,564.69c-.22,2.84-1.12,5.31-2.71,7.36-1.59,2.04-3.74,3.59-6.45,4.6-2,.77-4.2,1.16-6.56,1.23l-4.99-.39c-2.32-.41-4.43-1.14-6.3-2.22-2.52-1.42-4.43-3.27-5.74-5.55-1.29-2.26-1.83-4.8-1.61-7.57.22-2.93,1.16-5.46,2.8-7.59,1.64-2.13,3.81-3.74,6.52-4.84,2.71-1.12,5.74-1.53,9.08-1.27,3.36.24,6.28,1.12,8.8,2.62,2.5,1.53,4.39,3.42,5.64,5.74,1.27,2.3,1.79,4.93,1.55,7.87Z"/>
      <path class="cls-1" d="M879.75,617.53l-59.13-16.4-4.33,15.61,31.1,8.63h0c3.08.85,5.33,2.54,6.75,5.06,1.42,2.51,2.13,5.49,2.11,8.93-.02,3.43-.53,6.96-1.54,10.59l15.14,4.2c1.18-4.26,1.29-8.62.32-13.09-.86-3.98-2.78-7.61-5.63-10.92l10.88,3.02,4.33-15.61Z"/>
      <polygon class="cls-1" points="802.01 656.95 816.76 664.16 820.53 673.45 791.88 677.69 783.53 694.78 826.39 687.86 839.48 720.07 847.94 702.75 836.38 673.75 879.2 694.67 886.32 680.11 809.12 642.4 802.01 656.95"/>
      <path class="cls-1" d="M814.74,723.71c-3.5-2.69-7.64-3.73-12.39-3.11-4.76.62-9.56,2.79-14.38,6.51l-4.61,3.58c-1.64,1.32-3.09,2.24-4.37,2.76s-2.49.33-3.66-.57c-1.17-.9-1.61-2.17-1.33-3.81.28-1.64,1.25-3.53,2.89-5.67,1.7-2.21,3.76-3.71,6.19-4.53,2.44-.81,4.8-1.11,7.11-.88l3.4-14.88c-3.49-.83-6.93-.89-10.31-.19-3.38.7-6.59,2.05-9.62,4.05-3.04,2-5.75,4.55-8.15,7.67-2.89,3.76-4.86,7.59-5.9,11.49-1.04,3.9-1.1,7.57-.19,11.01.92,3.44,2.84,6.28,5.75,8.53,2.01,1.54,4.41,2.69,7.19,3.44,2.78.75,5.77.83,8.96.24,3.19-.59,6.4-2.18,9.62-4.75l6.42-5.13c1.69-1.39,3.16-2.32,4.4-2.81,1.25-.49,2.3-.41,3.14.25,1.3,1,1.95,2.25,1.98,3.77.02,1.51-.64,3.15-1.99,4.9-1.35,1.75-3.1,3.19-5.26,4.32-2.16,1.13-4.06,1.42-5.7.88l-3.29,14.34c2.69.93,5.57,1.08,8.63.45,3.07-.63,6.07-1.92,9-3.84,2.93-1.93,5.56-4.41,7.91-7.46,4.55-5.9,6.69-11.5,6.43-16.81-.25-5.3-2.88-9.88-7.87-13.72Z"/>
    </g>
  </g>
</svg>